<svg version="1.1" xmlns="http://www.w3.org/2000/svg" width="1024" height="1024" viewBox="0 0 1024 1024">
    <path fill="#679f37"
          d="M119.137 115.116v0c-65.745 0.265-118.96 53.535-119.137 119.275v555.78c0.264 65.691 53.446 118.872 119.112 119.137h0.025c65.691-0.264 118.872-53.446 119.137-119.112v-555.788c-0.177-65.757-53.392-119.027-119.111-119.292h-0.026z"></path>
    <path fill="#fbc02d"
          d="M904.441 671.035v0c-65.726 0.177-118.96 53.41-119.137 119.12v0.017c0.264 65.691 53.446 118.872 119.112 119.137h0.025c65.691-0.264 118.872-53.446 119.137-119.112v-0.025c-0.177-65.726-53.41-118.96-119.12-119.137h-0.017z"></path>
    <path fill="#2e72b8"
          d="M34.774 149.889v0c-21.463 21.59-34.73 51.349-34.73 84.207s13.267 62.616 34.736 84.212l393.426 393.426c21.574 21.371 51.27 34.575 84.050 34.575s62.477-13.204 84.060-34.585l-0.009 0.009 392.964-393.899c21.463-21.59 34.73-51.349 34.73-84.207s-13.267-62.616-34.736-84.212l0.005 0.005c-21.59-21.463-51.349-34.73-84.207-34.73s-62.616 13.267-84.212 34.736l0.005-0.005-271.176 271.488c-10.076 8.347-23.134 13.411-37.376 13.411-0.017 0-0.035 0-0.052 0h0.003c-16.059-0.006-30.631-6.366-41.341-16.702l0.018 0.017-268.214-267.745c-21.566-21.325-51.231-34.498-83.973-34.498s-62.407 13.173-83.983 34.509l0.011-0.011z"></path>
</svg>
