<svg version="1.1" xmlns="http://www.w3.org/2000/svg" width="1024" height="1024" viewBox="0 0 1024 1024">
    <path fill="#706d6e"
          d="M119.138 115.118v0c-65.746 0.266-118.96 53.535-119.137 119.275v555.78c0.265 65.69 53.446 118.872 119.112 119.137h0.025c65.69-0.265 118.872-53.446 119.137-119.112v-555.788c-0.177-65.757-53.391-119.026-119.111-119.293h-0.026z"></path>
    <path fill="#989691"
          d="M904.442 671.036v0c-65.69 0.265-118.872 53.446-119.137 119.112v0.025c0.265 65.69 53.446 118.872 119.112 119.137h0.025c65.69-0.265 118.872-53.446 119.137-119.112v-0.025c-0.265-65.69-53.446-118.872-119.112-119.137h-0.025z"></path>
    <path fill="#797a7a"
          d="M34.773 149.89v0c-21.463 21.589-34.731 51.349-34.731 84.207s13.267 62.617 34.736 84.212l393.427 393.427c21.574 21.372 51.271 34.575 84.050 34.575s62.477-13.205 84.059-34.585l-0.009 0.009 392.963-393.9c21.463-21.589 34.731-51.349 34.731-84.207s-13.267-62.617-34.736-84.212l0.005 0.005c-21.589-21.463-51.349-34.731-84.207-34.731s-62.617 13.267-84.212 34.736l0.005-0.005-271.177 271.488c-10.076 8.346-23.134 13.411-37.376 13.411-0.017 0-0.035 0-0.052 0h0.003c-16.059-0.006-30.632-6.365-41.342-16.703l0.018 0.017-268.213-267.745c-21.565-21.325-51.23-34.498-83.973-34.498s-62.407 13.172-83.983 34.509l0.011-0.011z"></path>
</svg>
